<svg width="17" height="14" viewBox="0 0 17 14" fill="none" xmlns="http://www.w3.org/2000/svg">
<path d="M8.25 1.65625L2.0625 11.8125C2 11.9062 2 11.9688 2 12.0625C2 12.3125 2.1875 12.5 2.4375 12.5H14.5312C14.7812 12.5 15 12.3125 15 12.0625C15 11.9688 14.9688 11.9062 14.9062 11.8125L8.71875 1.65625C8.6875 1.5625 8.59375 1.5 8.5 1.5C8.375 1.5 8.3125 1.5625 8.25 1.65625ZM6.96875 0.875C7.28125 0.34375 7.875 0 8.5 0C9.09375 0 9.6875 0.34375 10 0.875L16.1875 11.0312C16.375 11.3438 16.5 11.6875 16.5 12.0625C16.5 13.125 15.625 14 14.5312 14H2.4375C1.375 14 0.5 13.125 0.5 12.0625C0.5 11.6875 0.59375 11.3438 0.78125 11.0312L6.96875 0.875ZM9.5 10.5C9.5 11.0625 9.03125 11.5 8.5 11.5C7.9375 11.5 7.5 11.0625 7.5 10.5C7.5 9.96875 7.9375 9.5 8.5 9.5C9.03125 9.5 9.5 9.96875 9.5 10.5ZM9.25 4.75V7.75C9.25 8.1875 8.90625 8.5 8.5 8.5C8.0625 8.5 7.75 8.1875 7.75 7.75V4.75C7.75 4.34375 8.0625 4 8.5 4C8.90625 4 9.25 4.34375 9.25 4.75Z" fill="#006769"/>
</svg>
